# xmcd
#
# Track frame offsets:
#	150
#	14421
#	23918
#	36353
#	50870
#	67101
#	76407
#	90860
#	99831
#	112918
#	135605
#	148580
#	159702
#	174891
#
# Disc length: 2494 seconds
#
# Revision: 1
# Processed by: cddbd v1.5.2PL0 Copyright (c) Steve Scherf et al.
# Submitted via: audiograbber 1.83.01
#
DISCID=b109bc0e
DTITLE=Группа Джем представляет - Любимые застольные песни с тостами
DYEAR=1997
DGENRE=крепость 40 градусов
TTITLE0=И кто его знает
TTITLE1=А я люблю женатого
TTITLE2=На побывку едет
TTITLE3=Оренбургский платок
TTITLE4=А где мне взять такую песню
TTITLE5=Вот кто-то с горочки спустился
TTITLE6=Шумел камыш
TTITLE7=Одинокая бродит гармонь
TTITLE8=Зачем, вы девочки
TTITLE9=Ой, рябина кудрявая
TTITLE10=Подари мне платок
TTITLE11=Старый клён
TTITLE12=Подмосковные вечера
TTITLE13=Мой костёр
EXTD=
EXTT0=
EXTT1=
EXTT2=
EXTT3=
EXTT4=
EXTT5=
EXTT6=
EXTT7=
EXTT8=
EXTT9=
EXTT10=
EXTT11=
EXTT12=
EXTT13=
PLAYORDER=
